<svg width="1920" height="1080" viewBox="0 0 1920 1080" xmlns="http://www.w3.org/2000/svg">
  <defs>
    <radialGradient id="woodGradient" cx="50%" cy="30%" r="70%">
      <stop offset="0%" stop-color="#8D6E63"/>
      <stop offset="50%" stop-color="#6D4C41"/>
      <stop offset="100%" stop-color="#4E342E"/>
    </radialGradient>
    <linearGradient id="coffeeStreamGradient" x1="0%" y1="0%" x2="0%" y2="100%">
      <stop offset="0%" stop-color="#3E2723"/>
      <stop offset="50%" stop-color="#5D4037"/>
      <stop offset="100%" stop-color="#8D6E63"/>
    </linearGradient>
    <radialGradient id="cupGradient2" cx="40%" cy="20%" r="80%">
      <stop offset="0%" stop-color="#2C1810"/>
      <stop offset="70%" stop-color="#1A0E0A"/>
      <stop offset="100%" stop-color="#0D0706"/>
    </radialGradient>
    <linearGradient id="milkGradient" x1="0%" y1="0%" x2="100%" y2="100%">
      <stop offset="0%" stop-color="#FFFFFF"/>
      <stop offset="50%" stop-color="#F8F8F8"/>
      <stop offset="100%" stop-color="#F0F0F0"/>
    </linearGradient>
    <filter id="softBlur" x="-50%" y="-50%" width="200%" height="200%">
      <feGaussianBlur in="SourceGraphic" stdDeviation="3"/>
    </filter>
  </defs>
  
  <!-- Wooden table background -->
  <rect width="1920" height="1080" fill="url(#woodGradient)"/>
  
  <!-- Wood grain texture -->
  <path d="M 0 200 Q 400 180 800 200 T 1600 200 L 1920 200 L 1920 220 Q 1600 240 1200 220 T 400 220 L 0 220 Z" fill="rgba(139,110,99,0.3)"/>
  <path d="M 0 400 Q 600 380 1200 400 T 1920 400 L 1920 420 Q 1200 440 600 420 T 0 420 Z" fill="rgba(139,110,99,0.2)"/>
  <path d="M 0 600 Q 500 580 1000 600 T 1920 600 L 1920 620 Q 1000 640 500 620 T 0 620 Z" fill="rgba(139,110,99,0.25)"/>
  
  <!-- Coffee pour scene -->
  <g transform="translate(960, 400)">
    <!-- Coffee pot/French press -->
    <g transform="translate(-200, -100)">
      <!-- Pot body -->
      <rect x="-60" y="-80" width="120" height="160" rx="10" fill="url(#cupGradient2)" stroke="#1A1A1A" stroke-width="2"/>
      <!-- Pot handle -->
      <path d="M 60 -20 Q 100 -20 100 20 Q 100 60 60 60" fill="none" stroke="#1A1A1A" stroke-width="8" stroke-linecap="round"/>
      <!-- Pot spout -->
      <path d="M -60 -40 Q -80 -45 -90 -40 Q -95 -35 -90 -30 Q -80 -25 -60 -30" fill="#1A1A1A"/>
      <!-- Coffee stream -->
      <path d="M -90 -35 Q -120 20 -140 80 Q -145 120 -140 160" fill="none" stroke="url(#coffeeStreamGradient)" stroke-width="8">
        <animate attributeName="d" values="M -90 -35 Q -120 20 -140 80 Q -145 120 -140 160;M -90 -35 Q -125 25 -145 85 Q -150 125 -145 165;M -90 -35 Q -120 20 -140 80 Q -145 120 -140 160" dur="2s" repeatCount="indefinite"/>
      </path>
    </g>
    
    <!-- Receiving cup -->
    <g transform="translate(100, 100)">
      <!-- Cup shadow -->
      <ellipse cx="0" cy="120" rx="100" ry="25" fill="rgba(0,0,0,0.4)" filter="url(#softBlur)"/>
      
      <!-- Cup -->
      <path d="M -80 60 Q -80 100 -60 110 L 60 110 Q 80 100 80 60 L 70 -40 Q 70 -50 60 -50 L -60 -50 Q -70 -50 -70 -40 Z" fill="url(#milkGradient)" stroke="#E0E0E0" stroke-width="2"/>
      
      <!-- Coffee in cup -->
      <ellipse cx="0" cy="-40" rx="60" ry="12" fill="#3E2723"/>
      
      <!-- Milk foam art (heart shape) -->
      <path d="M -15 -45 Q -25 -55 -15 -50 Q -5 -55 5 -50 Q 15 -55 15 -45 Q 10 -35 0 -30 Q -10 -35 -15 -45" fill="url(#milkGradient)" opacity="0.9"/>
      
      <!-- Cup handle -->
      <path d="M 80 10 Q 110 10 110 35 Q 110 60 80 60" fill="none" stroke="url(#milkGradient)" stroke-width="10" stroke-linecap="round"/>
    </g>
  </g>
  
  <!-- Coffee beans scattered on table -->
  <ellipse cx="300" cy="800" rx="12" ry="18" fill="#5D4037" transform="rotate(30 300 800)"/>
  <ellipse cx="450" cy="750" rx="10" ry="15" fill="#4E342E" transform="rotate(-45 450 750)"/>
  <ellipse cx="600" cy="820" rx="11" ry="16" fill="#5D4037" transform="rotate(60 600 820)"/>
  <ellipse cx="1300" cy="780" rx="13" ry="19" fill="#4E342E" transform="rotate(-30 1300 780)"/>
  <ellipse cx="1500" cy="850" rx="9" ry="14" fill="#5D4037" transform="rotate(45 1500 850)"/>
  <ellipse cx="1650" cy="790" rx="10" ry="15" fill="#4E342E" transform="rotate(-60 1650 790)"/>
  
  <!-- More scattered beans -->
  <ellipse cx="200" cy="300" rx="8" ry="12" fill="#5D4037" transform="rotate(15 200 300)"/>
  <ellipse cx="1700" cy="350" rx="9" ry="13" fill="#4E342E" transform="rotate(-75 1700 350)"/>
  <ellipse cx="150" cy="600" rx="7" ry="11" fill="#5D4037" transform="rotate(90 150 600)"/>
  <ellipse cx="1800" cy="650" rx="8" ry="12" fill="#4E342E" transform="rotate(-15 1800 650)"/>
  
  <!-- Ambient lighting -->
  <circle cx="500" cy="200" r="150" fill="rgba(255,255,255,0.08)" filter="url(#softBlur)"/>
  <circle cx="1400" cy="300" r="120" fill="rgba(255,255,255,0.06)" filter="url(#softBlur)"/>
  
  <!-- Steam from the receiving cup -->
  <g transform="translate(1060, 400)">
    <path d="M -20 -50 Q -15 -70 -20 -90 Q -25 -110 -20 -130" fill="none" stroke="rgba(255,255,255,0.6)" stroke-width="2" opacity="0.7">
      <animate attributeName="d" values="M -20 -50 Q -15 -70 -20 -90 Q -25 -110 -20 -130;M -20 -50 Q -25 -70 -20 -90 Q -15 -110 -20 -130;M -20 -50 Q -15 -70 -20 -90 Q -25 -110 -20 -130" dur="3s" repeatCount="indefinite"/>
    </path>
    <path d="M 0 -50 Q 5 -70 0 -90 Q -5 -110 0 -130" fill="none" stroke="rgba(255,255,255,0.5)" stroke-width="2" opacity="0.6">
      <animate attributeName="d" values="M 0 -50 Q 5 -70 0 -90 Q -5 -110 0 -130;M 0 -50 Q -5 -70 0 -90 Q 5 -110 0 -130;M 0 -50 Q 5 -70 0 -90 Q -5 -110 0 -130" dur="2.8s" repeatCount="indefinite"/>
    </path>
    <path d="M 20 -50 Q 15 -70 20 -90 Q 25 -110 20 -130" fill="none" stroke="rgba(255,255,255,0.4)" stroke-width="2" opacity="0.5">
      <animate attributeName="d" values="M 20 -50 Q 15 -70 20 -90 Q 25 -110 20 -130;M 20 -50 Q 25 -70 20 -90 Q 15 -110 20 -130;M 20 -50 Q 15 -70 20 -90 Q 25 -110 20 -130" dur="3.2s" repeatCount="indefinite"/>
    </path>
  </g>
</svg>